<?xml version="1.0" encoding="UTF-8"?>
<svg width="15px" height="15px" viewBox="0 0 15 15" version="1.1" xmlns="http://www.w3.org/2000/svg" xmlns:xlink="http://www.w3.org/1999/xlink">
    <!-- Generator: Sketch 51.1 (57501) - http://www.bohemiancoding.com/sketch -->
    <title>Magnifier - simple-line-icons</title>
    <desc>Created with Sketch.</desc>
    <defs></defs>
    <g id="Page-1" stroke="none" stroke-width="1" fill="none" fill-rule="evenodd">
        <g id="Dashboard-New" transform="translate(-980.000000, -186.000000)" fill="#828282">
            <path d="M994.876953,200.123047 C994.958985,200.205079 995,200.307617 995,200.430664 C995,200.553712 994.958985,200.65625 994.876953,200.738281 C994.785807,200.829428 994.68099,200.875 994.5625,200.875 C994.44401,200.875 994.339193,200.829428 994.248047,200.738281 L990.009766,196.472656 C989.52669,196.891929 988.979821,197.220051 988.369141,197.457031 C987.75846,197.694012 987.111332,197.8125 986.427734,197.8125 C985.67122,197.8125 984.96029,197.668947 984.294922,197.381836 C983.629554,197.094725 983.048505,196.705081 982.551758,196.212891 C982.055011,195.720701 981.665366,195.14193 981.382812,194.476562 C981.100259,193.811195 980.958984,193.100264 980.958984,192.34375 C980.958984,191.587236 981.100259,190.876305 981.382812,190.210938 C981.665366,189.54557 982.055011,188.966799 982.551758,188.474609 C983.048505,187.982419 983.629554,187.592775 984.294922,187.305664 C984.96029,187.018553 985.67122,186.875 986.427734,186.875 C987.175134,186.875 987.881507,187.018553 988.546875,187.305664 C989.212243,187.592775 989.793292,187.982419 990.290039,188.474609 C990.786786,188.966799 991.17871,189.54557 991.46582,190.210938 C991.752931,190.876305 991.896484,191.587236 991.896484,192.34375 C991.896484,193.009118 991.782553,193.640296 991.554688,194.237305 C991.326822,194.834313 991.016929,195.369789 990.625,195.84375 L994.876953,200.123047 Z M986.427734,196.951172 C987.056644,196.951172 987.651364,196.830405 988.211914,196.588867 C988.772464,196.34733 989.260089,196.016929 989.674805,195.597656 C990.08952,195.178383 990.417642,194.690758 990.65918,194.134766 C990.900717,193.578773 991.021484,192.981774 991.021484,192.34375 C991.021484,191.705726 990.900717,191.108727 990.65918,190.552734 C990.417642,189.996742 990.08952,189.509117 989.674805,189.089844 C989.260089,188.670571 988.772464,188.34017 988.211914,188.098633 C987.651364,187.857095 987.056644,187.736328 986.427734,187.736328 C985.78971,187.736328 985.190432,187.857095 984.629883,188.098633 C984.069333,188.34017 983.581708,188.670571 983.166992,189.089844 C982.752277,189.509117 982.424155,189.996742 982.182617,190.552734 C981.94108,191.108727 981.820312,191.705726 981.820312,192.34375 C981.820312,192.981774 981.94108,193.578773 982.182617,194.134766 C982.424155,194.690758 982.752277,195.178383 983.166992,195.597656 C983.581708,196.016929 984.069333,196.34733 984.629883,196.588867 C985.190432,196.830405 985.78971,196.951172 986.427734,196.951172 Z" id="Magnifier---simple-line-icons"></path>
        </g>
    </g>
</svg>